# xmcd
#
# Track frame offsets:
#	150
#	15054
#	25036
#	41846
#
# Disc length: 806 seconds
#
# Revision: 1
# Processed by: cddbd v1.5.2PL0 Copyright (c) Steve Scherf et al.
# Submitted via: audiograbber 1.83.01
#
DISCID=1e032404
DTITLE=Various Artist - December Radio Sampler
DYEAR=2007
DGENRE=Country
TTITLE0=Rob Black - Turn up your Radio
TTITLE1=Peter Denahy - Sort of dunno Nothin'
TTITLE2=Dianna Corcoran - All gone Blue
TTITLE3=The Sunny Cowgirls - Dry land Crop
EXTD=
EXTT0=
EXTT1=
EXTT2=
EXTT3=
PLAYORDER=
